<svg width="26" height="20" viewBox="0 0 26 20" fill="none" xmlns="http://www.w3.org/2000/svg">
    <path
        d="M22.5766 2.60999C22.0233 2.099 21.3663 1.69364 20.6433 1.41708C19.9202 1.14052 19.1452 0.998169 18.3625 0.998169C17.5798 0.998169 16.8047 1.14052 16.0817 1.41708C15.3586 1.69364 14.7016 2.099 14.1483 2.60999L13 3.66999L11.8516 2.60999C10.734 1.5783 9.21809 0.998704 7.63747 0.998704C6.05685 0.998704 4.54097 1.5783 3.4233 2.60999C2.30563 3.64169 1.67773 5.04096 1.67773 6.49999C1.67773 7.95903 2.30563 9.3583 3.4233 10.39L4.57163 11.45L13 19.23L21.4283 11.45L22.5766 10.39C23.1302 9.87924 23.5693 9.27281 23.869 8.60535C24.1686 7.93789 24.3228 7.22248 24.3228 6.49999C24.3228 5.77751 24.1686 5.0621 23.869 4.39464C23.5693 3.72718 23.1302 3.12075 22.5766 2.60999Z"
        fill="#FF6D6D" stroke="#FF6D6D" stroke-width="1.5" stroke-linecap="round"
        stroke-linejoin="round" />
</svg>
    