<svg width="88" height="16" viewBox="0 0 88 16" fill="none" xmlns="http://www.w3.org/2000/svg">
    <path
        d="M7.99967 1.33337L10.0597 5.50671L14.6663 6.18004L11.333 9.42671L12.1197 14.0134L7.99967 11.8467L3.87967 14.0134L4.66634 9.42671L1.33301 6.18004L5.93967 5.50671L7.99967 1.33337Z"
        fill="#F1CA4A" stroke="#F1CA4A" stroke-width="0.666667" stroke-linecap="round"
        stroke-linejoin="round" />
    <path
        d="M25.9997 1.33337L28.0597 5.50671L32.6663 6.18004L29.333 9.42671L30.1197 14.0134L25.9997 11.8467L21.8797 14.0134L22.6663 9.42671L19.333 6.18004L23.9397 5.50671L25.9997 1.33337Z"
        fill="#F1CA4A" stroke="#F1CA4A" stroke-width="0.666667" stroke-linecap="round"
        stroke-linejoin="round" />
    <path
        d="M43.9997 1.33337L46.0597 5.50671L50.6663 6.18004L47.333 9.42671L48.1197 14.0134L43.9997 11.8467L39.8797 14.0134L40.6663 9.42671L37.333 6.18004L41.9397 5.50671L43.9997 1.33337Z"
        fill="#F1CA4A" stroke="#F1CA4A" stroke-width="0.666667" stroke-linecap="round"
        stroke-linejoin="round" />
    <path
        d="M61.9997 1.33337L64.0597 5.50671L68.6663 6.18004L65.333 9.42671L66.1197 14.0134L61.9997 11.8467L57.8797 14.0134L58.6663 9.42671L55.333 6.18004L59.9397 5.50671L61.9997 1.33337Z"
        fill="#F1CA4A" stroke="#F1CA4A" stroke-width="0.666667" stroke-linecap="round"
        stroke-linejoin="round" />
    <path
        d="M79.9997 1.33337L82.0597 5.50671L86.6663 6.18004L83.333 9.42671L84.1197 14.0134L79.9997 11.8467L75.8797 14.0134L76.6663 9.42671L73.333 6.18004L77.9397 5.50671L79.9997 1.33337Z"
        fill="#DADADC" stroke="#DADADC" stroke-width="0.666667" stroke-linecap="round"
        stroke-linejoin="round" />
</svg>
    