<svg width="70" height="70" viewBox="0 0 70 70" fill="none" xmlns="http://www.w3.org/2000/svg">
    <circle cx="35" cy="35" r="35" fill="#DFF4FB" />
    <path fill-rule="evenodd" clip-rule="evenodd"
        d="M20.4121 25.2174H23.5064L25.221 37.0096L26.8936 25.2174H48.0944L47.3837 28.6046H29.4864L26.7682 44.1184H23.6738L20.4121 25.2174Z"
        fill="#5EC6EB" />
    <path fill-rule="evenodd" clip-rule="evenodd"
        d="M48.6375 39.7276C48.7212 41.5674 47.6758 44.3691 45.3757 44.3691C42.6998 44.3691 42.1143 41.0658 42.1143 39.6858H44.2887C44.2887 40.4801 44.9579 41.2748 45.4595 41.2748C45.9614 41.2748 46.4634 40.6475 46.4634 40.2295C46.4634 39.8111 46.2961 39.1841 45.5017 38.6404C42.9088 37.0932 42.3234 35.2949 42.3234 33.7478C42.2398 31.9079 43.1178 29.1898 45.4177 29.1898C47.7178 29.1898 48.345 32.4098 48.345 33.7478H46.2961C46.2961 32.9951 45.7942 32.4516 45.2925 32.4516C44.7907 32.4516 44.456 32.9533 44.456 33.3717C44.456 33.7898 44.5397 34.1662 45.3344 34.7097C46.4214 35.2116 48.6375 36.8423 48.6375 39.7276ZM48.7617 43.2821C48.8497 43.282 48.9369 43.2992 49.0183 43.3328C49.0997 43.3665 49.1736 43.4158 49.2359 43.4781C49.2981 43.5404 49.3475 43.6143 49.3811 43.6957C49.4148 43.777 49.432 43.8642 49.4319 43.9523C49.4324 44.0406 49.4155 44.1283 49.3821 44.2101C49.3487 44.2919 49.2994 44.3662 49.2371 44.4289C49.1748 44.4916 49.1007 44.5413 49.0191 44.5753C48.9375 44.6092 48.85 44.6266 48.7617 44.6266C48.673 44.6269 48.5852 44.6096 48.5033 44.5758C48.4214 44.542 48.3469 44.4924 48.2843 44.4297C48.2216 44.367 48.1719 44.2926 48.1381 44.2107C48.1043 44.1287 48.0871 44.0409 48.0873 43.9523C48.0873 43.5812 48.3888 43.2821 48.7617 43.2821V43.1262C48.3022 43.1262 47.9313 43.4971 47.9313 43.9524C47.9311 44.0615 47.9525 44.1696 47.9942 44.2704C48.0359 44.3712 48.097 44.4628 48.1742 44.54C48.2513 44.6171 48.3429 44.6783 48.4437 44.7199C48.5445 44.7616 48.6526 44.783 48.7617 44.7828C49.2169 44.7828 49.5879 44.412 49.5879 43.9524C49.5876 43.7334 49.5004 43.5235 49.3455 43.3686C49.1907 43.2137 48.9807 43.1266 48.7617 43.1262V43.2821Z"
        fill="#5EC6EB" />
    <path fill-rule="evenodd" clip-rule="evenodd"
        d="M48.5955 43.6426H48.8125C48.899 43.6426 49.0255 43.6426 49.0255 43.7583C49.0255 43.8722 48.9557 43.8954 48.8568 43.8931H48.5955V44.0261H48.7703L48.9684 44.4054H49.1729L48.9556 44.0261C49.1138 44.0155 49.2001 43.9479 49.2001 43.7859C49.2001 43.6931 49.1749 43.6066 49.0947 43.5541C49.0273 43.5119 48.9284 43.5096 48.8525 43.5096H48.4202V44.4054H48.5953V43.6426H48.5955ZM30.5728 39.1005L31.4092 33.6642L32.2456 39.1005H30.5728ZM30.0711 42.153H32.6638L32.9983 44.1182H37.138V36.3405L39.6888 44.1182H41.8215V29.6498H39.647V37.0095L37.2217 29.6498H34.9637V43.2402L32.6219 29.6498H30.1965L27.6875 44.1182H29.8201L30.0711 42.153Z"
        fill="#5EC6EB" />
</svg>
    