<svg width="25" height="24" viewBox="0 0 25 24" fill="none" xmlns="http://www.w3.org/2000/svg">
<path d="M17.5 3.00006C17.7626 2.73741 18.0744 2.52907 18.4176 2.38693C18.7608 2.24479 19.1286 2.17163 19.5 2.17163C19.8714 2.17163 20.2392 2.24479 20.5824 2.38693C20.9256 2.52907 21.2374 2.73741 21.5 3.00006C21.7626 3.2627 21.971 3.57451 22.1131 3.91767C22.2553 4.26083 22.3284 4.62862 22.3284 5.00006C22.3284 5.37149 22.2553 5.73929 22.1131 6.08245C21.971 6.42561 21.7626 6.73741 21.5 7.00006L8 20.5001L2.5 22.0001L4 16.5001L17.5 3.00006Z" stroke="white" stroke-width="1.5" stroke-linecap="round" stroke-linejoin="round"/>
</svg>
