<svg width="40" height="40" viewBox="0 0 40 40" fill="none" xmlns="http://www.w3.org/2000/svg">
<path d="M9.52959 33.2748V31.505C9.52959 30.828 9.11901 30.3847 8.41417 30.3847C8.06175 30.3847 7.67854 30.5016 7.41508 30.8865C7.20979 30.5634 6.91554 30.3847 6.47416 30.3847C6.1799 30.3847 5.88565 30.4741 5.65299 30.7971V30.4432H5.03711V33.2748H5.65299V31.7112C5.65299 31.2095 5.91645 30.9724 6.32703 30.9724C6.73762 30.9724 6.94291 31.237 6.94291 31.7112V33.2748H7.55878V31.7112C7.55878 31.2095 7.85304 30.9724 8.23283 30.9724C8.64341 30.9724 8.84871 31.237 8.84871 31.7112V33.2748H9.52959ZM18.6651 30.4432H17.666V29.5875H17.0501V30.4432H16.4924V31.0033H17.0501V32.3023C17.0501 32.9517 17.3136 33.3332 18.0184 33.3332C18.2819 33.3332 18.5761 33.2438 18.7814 33.127L18.6035 32.5944C18.4256 32.7112 18.2203 32.7421 18.0732 32.7421C17.7789 32.7421 17.6626 32.5634 17.6626 32.2713V31.0033H18.6617V30.4432H18.6651ZM23.8932 30.3813C23.5408 30.3813 23.3047 30.56 23.1576 30.7937V30.4397H22.5417V33.2713H23.1576V31.6768C23.1576 31.206 23.3629 30.938 23.7461 30.938C23.8624 30.938 24.0096 30.9689 24.1293 30.9964L24.3072 30.4054C24.1841 30.3813 24.0096 30.3813 23.8932 30.3813ZM15.9929 30.6768C15.6986 30.4706 15.288 30.3813 14.8467 30.3813C14.1418 30.3813 13.6731 30.7352 13.6731 31.2954C13.6731 31.7662 14.0255 32.0342 14.6414 32.1201L14.9356 32.1511C15.2573 32.2095 15.4352 32.2988 15.4352 32.4466C15.4352 32.6528 15.1991 32.8005 14.7885 32.8005C14.3779 32.8005 14.0529 32.6528 13.8476 32.505L13.5533 32.9758C13.8749 33.2129 14.3163 33.3298 14.7577 33.3298C15.5789 33.3298 16.0511 32.9449 16.0511 32.4157C16.0511 31.9139 15.6678 31.6493 15.0828 31.56L14.7885 31.5291C14.525 31.4981 14.3198 31.4397 14.3198 31.2645C14.3198 31.0583 14.525 30.9414 14.8501 30.9414C15.2025 30.9414 15.5549 31.0892 15.7328 31.1785L15.9929 30.6768ZM32.3786 30.3813C32.0262 30.3813 31.7901 30.56 31.643 30.7937V30.4397H31.0271V33.2713H31.643V31.6768C31.643 31.206 31.8483 30.938 32.2315 30.938C32.3478 30.938 32.495 30.9689 32.6147 30.9964L32.7927 30.4122C32.6729 30.3813 32.4984 30.3813 32.3786 30.3813ZM24.5091 31.859C24.5091 32.7146 25.0976 33.3332 26.0077 33.3332C26.4183 33.3332 26.7126 33.2438 27.0068 33.0102L26.7126 32.5084C26.4765 32.6871 26.2438 32.773 25.9769 32.773C25.4774 32.773 25.125 32.4191 25.125 31.859C25.125 31.3263 25.4774 30.9724 25.9769 30.9449C26.2404 30.9449 26.4765 31.0342 26.7126 31.2095L27.0068 30.7078C26.7126 30.4706 26.4183 30.3847 26.0077 30.3847C25.0976 30.3813 24.5091 31.0033 24.5091 31.859ZM30.206 31.859V30.4432H29.5901V30.7971C29.3848 30.5325 29.0905 30.3847 28.7073 30.3847C27.9135 30.3847 27.2977 31.0033 27.2977 31.859C27.2977 32.7146 27.9135 33.3332 28.7073 33.3332C29.1179 33.3332 29.4122 33.1854 29.5901 32.9208V33.2748H30.206V31.859ZM27.9443 31.859C27.9443 31.3572 28.266 30.9449 28.7963 30.9449C29.2958 30.9449 29.6483 31.3297 29.6483 31.859C29.6483 32.3607 29.2958 32.773 28.7963 32.773C28.2694 32.7421 27.9443 32.3572 27.9443 31.859ZM20.5743 30.3813C19.7532 30.3813 19.1647 30.9724 19.1647 31.8555C19.1647 32.7421 19.7532 33.3298 20.6051 33.3298C21.0157 33.3298 21.4263 33.2129 21.7513 32.9449L21.4571 32.5016C21.221 32.6803 20.9267 32.7971 20.6359 32.7971C20.2527 32.7971 19.8729 32.6184 19.784 32.1201H21.8677C21.8677 32.0308 21.8677 31.9724 21.8677 31.883C21.895 30.9724 21.3647 30.3813 20.5743 30.3813ZM20.5743 30.9139C20.9575 30.9139 21.221 31.1511 21.2792 31.5909H19.8113C19.8695 31.2095 20.1329 30.9139 20.5743 30.9139ZM35.8755 31.859V29.3229H35.2596V30.7971C35.0543 30.5325 34.76 30.3847 34.3768 30.3847C33.583 30.3847 32.9671 31.0033 32.9671 31.859C32.9671 32.7146 33.583 33.3332 34.3768 33.3332C34.7874 33.3332 35.0817 33.1854 35.2596 32.9208V33.2748H35.8755V31.859ZM33.6138 31.859C33.6138 31.3572 33.9354 30.9449 34.4658 30.9449C34.9653 30.9449 35.3177 31.3297 35.3177 31.859C35.3177 32.3607 34.9653 32.773 34.4658 32.773C33.9354 32.7421 33.6138 32.3572 33.6138 31.859ZM12.9956 31.859V30.4432H12.3797V30.7971C12.1744 30.5325 11.8802 30.3847 11.497 30.3847C10.7032 30.3847 10.0873 31.0033 10.0873 31.859C10.0873 32.7146 10.7032 33.3332 11.497 33.3332C11.9076 33.3332 12.2018 33.1854 12.3797 32.9208V33.2748H12.9956V31.859ZM10.7066 31.859C10.7066 31.3572 11.0282 30.9449 11.5586 30.9449C12.0581 30.9449 12.4105 31.3297 12.4105 31.859C12.4105 32.3607 12.0581 32.773 11.5586 32.773C11.0282 32.7421 10.7066 32.3572 10.7066 31.859Z" fill="#383B50"/>
<path d="M25.0399 8.93799H15.7881V25.6321H25.0399V8.93799Z" fill="#FF5A00"/>
<path d="M16.4033 17.2852C16.4033 13.8934 17.9909 10.8831 20.427 8.9381C18.6341 7.5223 16.3725 6.66663 13.9056 6.66663C8.06158 6.66663 3.33301 11.4158 3.33301 17.2852C3.33301 23.1546 8.06158 27.9037 13.9056 27.9037C16.3725 27.9037 18.6341 27.0481 20.427 25.6323C17.9875 23.7147 16.4033 20.6769 16.4033 17.2852Z" fill="#EB001B"/>
<path d="M37.5218 17.2852C37.5218 23.1546 32.7932 27.9037 26.9492 27.9037C24.4823 27.9037 22.2206 27.0481 20.4277 25.6323C22.8947 23.6838 24.4515 20.6769 24.4515 17.2852C24.4515 13.8934 22.8639 10.8831 20.4277 8.9381C22.2172 7.5223 24.4788 6.66663 26.9458 6.66663C32.7932 6.66663 37.5218 11.4467 37.5218 17.2852Z" fill="#F79E1B"/>
</svg>
